<svg width="32" height="32" viewBox="0 0 32 32" fill="none" xmlns="http://www.w3.org/2000/svg">
  <rect width="32" height="32" rx="8" fill="#14B8A6"/>
  <path d="M16 6C20.4183 6 24 9.58172 24 14C24 18.4183 20.4183 22 16 22C11.5817 22 8 18.4183 8 14C8 9.58172 11.5817 6 16 6Z" fill="white"/>
  <path d="M16 8C19.3137 8 22 10.6863 22 14C22 17.3137 19.3137 20 16 20C12.6863 20 10 17.3137 10 14C10 10.6863 12.6863 8 16 8Z" fill="#14B8A6"/>
  <circle cx="16" cy="14" r="3" fill="white"/>
  <path d="M12 24H20C20.5523 24 21 24.4477 21 25C21 25.5523 20.5523 26 20 26H12C11.4477 26 11 25.5523 11 25C11 24.4477 11.4477 24 12 24Z" fill="white"/>
</svg>